<svg xmlns="http://www.w3.org/2000/svg" xmlns:xlink="http://www.w3.org/1999/xlink" viewBox="0 0 147 138"><path d="M 145.124 68.611 C 136.833 70.276 118.184 75.185 100.847 90.963 C 81.722 108.366 75.41 128.311 73.347 136.429 L 73.326 136.421 C 71.19 128.234 65.217 109.89 48.479 93.477 C 30.015 75.371 9.254 70.207 1.036 68.611 L 1 68.49 C 9.315 66.938 27.839 62.166 45.389 46.622 C 64.749 29.482 71.372 9.129 73.544 1.04 L 73.585 1.04 C 75.729 9.218 81.431 27.603 98.182 44.008 C 116.658 62.097 136.825 67.043 145.039 68.631" fill="rgb(255, 255, 255)"></path><path d="M 145.124 68.611 C 136.833 70.276 118.184 75.185 100.847 90.963 C 81.722 108.366 75.41 128.311 73.347 136.429 L 73.326 136.421 C 71.19 128.234 65.217 109.89 48.479 93.477 C 30.015 75.371 9.254 70.207 1.036 68.611 L 1 68.49 C 9.315 66.938 27.839 62.166 45.389 46.622 C 64.749 29.482 71.372 9.129 73.544 1.04 L 73.585 1.04 C 75.729 9.218 81.431 27.603 98.182 44.008 C 116.658 62.097 136.825 67.043 145.039 68.631" fill="transparent" stroke-width="1.62991" stroke="rgb(0,0,0)" stroke-miterlimit="10" stroke-dasharray=""></path></svg>