<svg xmlns="http://www.w3.org/2000/svg" xmlns:xlink="http://www.w3.org/1999/xlink" viewBox="0 0 174 160"><g id="ss9613839969_1"><path d="M 0 159.283 L 0 0 L 173.034 0 L 173.034 159.283 Z" fill="transparent"></path><path d="M 106.499 65.67 C 115.323 35.677 110.371 7.803 95.438 3.412 C 80.505 -0.979 61.246 19.775 52.422 49.768 C 43.599 79.761 48.551 107.634 63.484 112.025 C 78.417 116.416 97.675 95.662 106.499 65.67 Z" fill="rgb(255,255,255)" stroke-width="5.00537" stroke="rgb(0,0,0)" stroke-miterlimit="10" stroke-dasharray=""></path><path d="M 153.331 80.216 C 162.155 50.223 157.203 22.35 142.27 17.959 C 127.337 13.568 108.078 34.322 99.254 64.314 C 90.43 94.307 95.383 122.181 110.316 126.572 C 125.249 130.963 144.507 110.209 153.331 80.216 Z" fill="rgb(255,255,255)" stroke-width="5.00537" stroke="rgb(0,0,0)" stroke-miterlimit="10" stroke-dasharray=""></path><path d="M 34.216 52.958 C 50.929 55.663 68.417 59.016 86.581 63.158 C 116.977 70.089 144.907 78.218 170.23 86.812" fill="transparent" stroke-width="5.00537" stroke="rgb(0,0,0)" stroke-linecap="round" stroke-miterlimit="10" stroke-dasharray=""></path><path d="M 2.818 102.915 C 3.467 101.858 7.426 95.73 15.332 94.208 C 24.886 92.362 31.749 98.9 32.355 99.491" fill="transparent" stroke-width="5.00537" stroke="rgb(255, 255, 255)" stroke-linecap="round" stroke-miterlimit="10" stroke-dasharray=""></path><path d="M 71.573 156.465 C 65.626 156.31 49.434 155.07 36.061 143.095 C 28.48 136.319 24.774 128.753 23.012 125.048 C 17.488 113.51 16.77 102.929 16.798 96.998" fill="transparent" stroke-width="5.00537" stroke="rgb(255, 255, 255)" stroke-linecap="round" stroke-miterlimit="10" stroke-dasharray=""></path><path d="M 85.228 80.529 C 85.51 70.09 80.901 61.327 73.334 59.439 C 63.963 57.086 53.606 66.201 50.195 79.782 C 46.799 93.364 51.633 106.283 61.004 108.635 C 68.627 110.551 76.9 104.874 81.564 95.364 L 75.265 85.277 L 85.228 80.515 Z" fill="rgb(0,0,0)"></path><path d="M 132.731 93.871 C 133.013 83.431 128.405 74.668 120.838 72.781 C 111.467 70.428 101.109 79.543 97.699 93.124 C 94.289 106.705 99.136 119.624 108.508 121.977 C 116.131 123.893 124.403 118.215 129.068 108.706 L 122.768 98.619 L 132.731 93.857 Z" fill="rgb(0,0,0)"></path></g></svg>